<svg width="384" height="220" viewBox="0 0 384 220" fill="none" xmlns="http://www.w3.org/2000/svg">
<mask id="mask0" mask-type="alpha" maskUnits="userSpaceOnUse" x="0" y="0" width="384" height="220">
<rect width="384" height="220" fill="url(#paint0_linear)"/>
</mask>
<g mask="url(#mask0)">
<rect width="384" height="220" fill="white"/>
</g>
<g clip-path="url(#clip0)">
<path d="M333.65 114.379C330.312 124.508 322.892 135.13 310.154 145.382C305.579 149.088 301.745 153.041 298.407 157.117C293.46 163.169 289.75 169.592 286.288 175.768C270.582 204.425 262.915 229.993 189.46 209.736C160.275 201.707 154.216 212.33 122.558 217.641C121.569 217.765 120.703 218.012 119.714 218.135C110.934 219.494 103.143 219.247 96.2178 217.888C87.4377 216.036 80.1416 212.33 73.9585 207.266C61.9632 197.014 54.5434 181.574 50.7099 165.393C49.2259 159.464 48.2366 153.411 47.742 147.482C47.371 144.147 47.2473 140.936 47.1237 137.971C46.8763 127.472 48.2366 119.196 50.3389 112.279C50.5862 111.415 50.9572 110.55 51.2045 109.809C51.5755 108.944 51.8229 108.08 52.1938 107.215C60.6029 87.2048 76.6791 80.4112 76.9264 61.1422C77.6684 10.2522 116.128 1.4823 146.549 7.41123C211.101 20.0102 209.122 -5.80535 255.496 1.23526C340.328 14.2048 281.712 47.8021 317.327 68.3063C331.548 76.4586 340.452 94.3689 333.65 114.379Z" fill="#C0B1FF" fill-opacity="0.5"/>
<path d="M333.65 114.379C330.311 124.508 322.892 135.13 310.154 145.382C267.367 179.844 289.503 237.404 189.459 209.86C159.409 201.584 153.845 213.071 119.714 218.259C69.7539 225.794 51.2045 184.044 47.6182 147.606C46.0106 130.931 47.7419 119.073 51.2045 109.932L52.1938 107.338C52.1938 107.338 63.3234 106.227 67.4043 115.738C67.4043 115.738 70.9905 109.809 77.9156 111.909C84.8407 114.009 83.3568 119.567 83.3568 119.567C83.3568 119.567 93.9918 112.156 103.514 121.914C113.036 131.672 107.347 145.506 107.347 145.506C107.347 145.506 116.251 144.888 118.972 151.682C118.972 151.682 131.709 146.124 139.747 153.535C147.785 160.946 156.194 167.74 156.194 167.74C156.194 167.74 165.345 170.086 164.603 181.327C164.603 181.327 171.281 176.262 180.679 178.856C180.679 178.856 182.287 167.245 198.24 164.652C214.192 162.181 221.488 166.381 221.488 166.381C221.488 166.381 221.735 155.758 234.102 154.646C234.102 154.646 233.731 138.218 252.033 136.366C270.335 134.636 274.168 144.271 274.168 144.271C274.168 144.271 276.518 136.613 288.884 137.107C288.884 137.107 291.358 123.025 307.434 123.643C307.434 123.643 311.267 116.602 319.305 118.949C319.305 119.073 324.994 109.438 333.65 114.379Z" fill="#EBE6FF"/>
<path d="M298.406 157.117C270.83 191.208 278.744 234.44 189.46 209.736C159.409 201.46 153.845 212.948 119.714 218.135C69.7539 225.67 51.2045 183.92 47.6183 147.482C46.1343 132.413 47.4946 121.173 50.3389 112.403C50.3389 112.403 59.6136 117.22 59.2426 124.878C59.2426 124.878 68.1463 122.037 75.1951 128.213C75.1951 128.213 85.4591 120.555 99.1857 128.213C112.912 135.871 104.627 151.682 104.627 151.682C104.627 151.682 112.294 152.052 114.149 159.711C114.149 159.711 124.042 153.782 130.472 161.934C136.903 170.086 131.091 182.932 120.332 186.02C122.682 185.403 132.822 183.55 138.263 192.196C138.263 192.196 147.291 182.932 156.689 192.196C156.689 192.196 167.077 188.861 171.405 198.002C171.405 198.002 177.588 187.008 190.449 190.961C203.31 195.037 203.681 204.178 203.681 204.178C203.681 204.178 207.02 197.508 215.552 199.36C215.552 199.36 212.337 183.426 229.155 179.474C229.155 179.474 230.763 166.504 245.231 167.616C245.231 167.616 250.796 161.687 257.227 163.293C256.979 163.169 276.271 143.283 298.406 157.117Z" fill="white"/>
<path d="M242.14 41.8733C242.14 41.8733 238.677 38.4147 232.37 41.0086C226.064 43.6025 227.919 50.6431 222.972 48.9139C218.026 47.1846 213.203 47.4316 212.708 51.7548C212.09 58.0543 209.122 55.7074 207.143 61.3893C205.412 66.4536 207.391 68.8005 211.1 67.1947C216.418 64.9714 212.337 70.5298 219.881 71.6414C227.424 72.6296 236.575 66.2066 237.935 61.7599C239.296 57.3132 241.398 54.9663 243.005 53.1135C244.737 51.3843 246.839 45.4553 242.14 41.8733Z" fill="#340E70"/>
<path d="M203.681 88.5636L203.557 90.0458C203.557 90.4164 203.681 90.7869 204.052 91.034L206.278 92.3927C206.649 92.6397 207.267 92.7633 207.638 92.6397L209.74 92.1457L203.681 88.5636Z" fill="#340E70"/>
<path d="M223.961 95.8512L217.036 91.8986C216.418 91.528 216.171 90.6634 216.542 90.0458L230.145 66.4535C231.505 64.1067 235.833 60.8952 238.183 62.2539L238.925 62.6244C241.274 63.9832 240.78 69.418 239.419 71.7649L225.816 95.3571C225.445 95.9747 224.58 96.2217 223.961 95.8512Z" fill="#E75724"/>
<path d="M224.209 58.5482L240.532 58.6717L218.273 94.3689L209.369 91.8985L224.209 58.5482Z" fill="#00C6BC"/>
<path d="M209.864 92.1456L202.939 88.193C202.32 87.8224 202.073 86.9578 202.444 86.3402L216.047 62.748C217.407 60.4011 221.735 57.1896 224.085 58.5483L224.827 58.9189C227.177 60.2776 226.682 65.7124 225.322 68.0593L211.719 91.6515C211.348 92.2691 210.482 92.5162 209.864 92.1456Z" fill="#00A599"/>
<path d="M206.278 92.3927L206.154 92.5162L205.288 93.8749L122.682 217.641C121.692 217.765 120.827 218.012 119.837 218.136C111.057 219.494 103.267 219.247 96.3415 217.888C87.5614 216.036 80.2653 212.33 74.0822 207.266L105.369 179.35L158.791 131.548L169.179 122.284L204.052 91.034L205.288 91.7751L206.278 92.3927Z" fill="white"/>
<path d="M226.806 127.966C226.806 127.966 223.096 128.46 219.262 131.548C217.284 133.154 214.687 134.883 213.945 134.142C213.574 133.772 213.45 131.301 216.047 129.572C218.644 127.843 218.026 124.261 220.499 123.767C222.23 123.519 222.107 125.249 226.311 123.643L226.806 127.966Z" fill="#340E70"/>
<path d="M253.146 117.714C252.404 124.137 224.209 129.325 224.209 129.325C224.209 129.325 223.343 125.496 225.693 123.643C225.693 123.643 232.123 118.949 235.091 117.097C238.677 114.873 241.274 114.626 241.274 114.626C241.274 114.379 240.161 114.009 238.677 113.514C233.978 112.032 224.209 109.438 223.59 105.98C223.59 105.609 223.467 105.362 223.467 104.992C223.59 100.174 229.897 92.2691 229.897 92.2691L236.08 90.1693C236.08 90.1693 236.946 96.9629 239.048 98.5686C241.274 100.174 253.888 111.291 253.146 117.714Z" fill="#662ABC"/>
<path d="M238.677 113.514C233.854 112.032 224.209 109.438 223.59 105.98C223.59 105.609 223.467 105.362 223.467 104.992C224.085 103.633 225.198 102.398 226.558 101.904C229.403 101.039 229.032 107.462 232.123 109.315C235.462 111.291 238.677 113.514 238.677 113.514Z" fill="#340E70"/>
<path d="M242.882 60.1541C242.882 60.1541 259.453 55.4604 261.802 54.4722C264.275 53.3605 272.066 43.2319 272.066 43.2319L274.292 44.5906C274.292 44.5906 271.819 54.1016 264.77 59.0424C262.05 61.0187 246.468 67.0712 246.468 67.0712L242.882 60.1541Z" fill="#FFB27D"/>
<path d="M187.852 141.677C187.852 141.677 185.379 144.271 184.389 146.618C183.4 149.088 181.916 151.806 181.05 151.435C180.556 151.311 179.196 149.212 180.679 146.371C182.163 143.653 179.814 140.812 181.792 139.207C183.153 138.095 183.895 139.701 186.739 136.242L187.852 141.677Z" fill="#340E70"/>
<path d="M237.07 92.6397C237.07 92.6397 219.386 115.12 211.595 122.037C207.514 125.743 187.976 142.048 187.976 142.048C187.976 142.048 186.615 140.689 186.244 139.577C185.379 137.354 186.121 135.872 186.121 135.872C186.121 135.872 194.406 119.69 202.321 114.997C207.762 111.785 211.101 91.5281 222.849 84.611C234.596 77.6939 237.07 92.6397 237.07 92.6397Z" fill="#662ABC"/>
<path d="M246.468 78.4348C240.903 89.7986 239.543 95.1099 237.564 96.2216C235.586 97.3333 216.789 94.6158 215.181 91.7749C214.81 91.0338 214.934 90.1691 215.429 89.3045C216.789 86.7106 220.746 83.4991 222.725 80.2876C224.085 78.1877 225.074 76.3349 225.693 74.7292C229.155 66.824 226.311 64.6006 228.042 63.4889C231.01 61.6361 244.737 57.6835 249.065 59.1657C251.167 59.9069 248.447 64.23 248.694 67.8121C248.941 72.2588 248.199 74.8527 246.468 78.4348Z" fill="white"/>
<path d="M227.177 63.9832C227.177 63.9832 214.563 72.6295 211.843 77.0762C209.122 81.5229 205.041 92.1456 205.041 92.1456C205.041 92.1456 205.165 92.7632 207.514 92.3926C207.514 92.3926 215.429 80.6583 216.665 79.4231C217.902 78.1879 228.908 72.259 228.908 72.259L227.177 63.9832Z" fill="#FFB27D"/>
<path d="M252.775 63.242C252.157 64.8477 251.044 66.824 248.694 68.8004L242.758 59.2893C242.758 59.2893 249.065 58.3012 252.528 57.5601C252.528 57.4366 254.012 59.7834 252.775 63.242Z" fill="white"/>
<path d="M236.946 60.2776C236.946 60.2776 231.01 61.1422 226.435 63.7361C224.58 64.8478 219.633 69.0475 219.633 69.0475C219.633 69.0475 220.994 73.4942 226.558 74.8529C232.123 76.2116 231.01 65.4654 231.01 65.4654L236.946 60.2776Z" fill="white"/>
<path d="M271.943 43.3554C271.943 43.3554 272.808 38.0441 273.921 38.0441C275.034 38.1676 275.9 39.8969 276.024 40.885C276.147 41.8732 274.169 44.5906 274.169 44.5906L271.943 43.3554Z" fill="#FFB27D"/>
<path d="M208.009 92.8867C208.009 92.8867 208.504 95.3571 208.009 96.3453C207.638 97.3334 206.525 98.0745 205.783 98.0745C205.041 98.0745 206.278 96.2217 205.783 95.2336C205.288 94.2454 204.423 92.0221 205.907 91.528C207.267 90.9104 208.009 92.8867 208.009 92.8867Z" fill="#FFB27D"/>
<path d="M207.762 92.0221C207.762 92.0221 208.38 93.6278 208.627 94.1219C208.998 94.616 207.762 93.8749 207.391 93.3808C207.02 92.8867 207.762 92.0221 207.762 92.0221Z" fill="#FFAE73"/>
<path d="M227.3 76.7057C227.177 79.2996 224.456 84.4874 221.365 85.4755C218.273 86.4637 215.429 89.1811 215.429 89.3046C216.789 86.7107 220.746 83.4992 222.725 80.2877C224.085 78.1879 225.074 76.3351 225.693 74.7293C226.435 74.4823 227.424 74.8529 227.3 76.7057Z" fill="#EBE6FF"/>
<path d="M232.371 70.1591C230.763 75.0999 226.187 77.0762 224.332 77.6938C223.961 77.8173 223.714 77.9408 223.59 77.9408L223.096 75.7175C223.096 75.7175 223.714 75.594 224.58 75.2234C226.311 74.4823 229.155 72.753 230.268 69.5415C231.752 64.9713 227.919 61.8833 227.424 61.5127C228.413 61.2657 229.279 61.0187 230.145 60.8951C231.876 62.7479 233.731 66.2065 232.371 70.1591Z" fill="#00C6BC"/>
<path d="M241.027 60.1541C241.027 60.1541 247.334 61.0187 248.818 68.6769C248.818 68.6769 250.178 68.1828 250.549 66.9476C250.549 66.9476 248.818 60.1541 242.14 58.9189C241.769 58.7954 240.161 58.4248 240.161 58.4248V58.7954C240.161 58.7954 240.161 59.66 240.285 59.7835C240.161 60.0306 241.027 60.1541 241.027 60.1541Z" fill="#00C6BC"/>
<path d="M233.978 60.7716C234.473 59.4129 234.967 57.5601 234.967 55.0897L235.338 55.2132L241.274 56.572C241.274 56.572 241.027 58.4248 241.027 60.154C240.78 65.7124 233.484 61.8833 233.978 60.7716Z" fill="#FFB27D"/>
<path d="M241.274 56.5718C241.274 56.5718 241.274 56.5718 241.151 58.4246C237.812 58.1776 236.08 56.9424 235.339 55.2131L241.274 56.5718Z" fill="#F48F4E"/>
<path d="M242.635 56.4484C242.635 56.4484 234.968 58.4248 233.855 53.6075C232.742 48.7902 231.01 45.8258 235.833 44.3435C240.656 42.8613 242.016 44.4671 242.882 46.0728C243.624 47.555 244.613 55.8308 242.635 56.4484Z" fill="#FFB27D"/>
<path d="M239.296 43.479C239.296 43.479 238.554 49.655 235.462 51.1372C232.371 52.7429 230.763 52.2489 230.763 52.2489C230.763 52.2489 232.742 49.655 232.494 46.1964C232.618 46.1964 237.07 41.2556 239.296 43.479Z" fill="#340E70"/>
<path d="M238.925 44.0966C238.925 44.0966 240.656 44.3436 241.522 45.3318C242.387 46.3199 243.253 47.6786 243.624 49.5314C243.624 49.5314 244.366 45.3318 242.016 43.6025C239.543 41.6262 238.925 44.0966 238.925 44.0966Z" fill="#340E70"/>
<path d="M122.682 105.609L122.434 106.721L121.321 111.538L117.982 125.866L111.799 152.176L105.492 179.227L96.4651 217.888C87.685 216.036 80.3889 212.33 74.2058 207.266C61.9632 197.014 54.5434 181.574 50.7098 165.393L117.982 103.139L120.085 104.25L120.332 104.374L122.311 105.362L122.682 105.609Z" fill="white"/>
<path d="M150.258 154.523C150.258 154.523 145.683 155.758 141.478 160.328C139.252 162.799 136.285 165.269 135.295 164.404C134.801 164.034 134.182 160.946 137.274 158.352C140.242 155.758 138.881 151.435 141.973 150.447C144.075 149.829 144.323 151.929 149.145 149.335L150.258 154.523Z" fill="#340E70"/>
<path d="M174.373 134.266C174.125 141.553 148.651 157.487 148.651 157.487C148.651 157.487 145.93 155.882 145.93 149.953C145.93 149.953 154.216 138.218 159.286 134.266C160.151 133.648 160.151 132.413 157.925 130.807C157.307 130.313 156.442 129.819 155.452 129.325C155.452 129.325 145.807 124.631 139.747 120.678C138.634 119.937 137.645 119.196 136.903 118.579C136.655 118.332 147.909 105.362 147.909 105.362L154.958 102.892C154.958 102.892 157.555 107.338 159.533 110.179C161.388 112.65 174.62 126.36 174.373 134.266Z" fill="#662ABC"/>
<path d="M158.049 130.807C157.431 130.313 156.565 129.819 155.576 129.325C155.576 129.325 145.93 124.631 139.871 120.679C140.736 118.826 142.22 116.355 144.446 115.861C148.156 114.873 147.909 121.42 150.011 123.89C151.99 126.36 157.926 130.684 158.049 130.807Z" fill="#340E70"/>
<path d="M118.106 101.039L117.982 102.645C117.982 103.139 118.106 103.509 118.601 103.756L121.198 105.239C121.692 105.486 122.311 105.609 122.805 105.486L125.279 104.991L118.106 101.039Z" fill="#340E70"/>
<path d="M141.107 109.315L133.193 104.745C132.451 104.374 132.204 103.386 132.575 102.645L148.032 75.7176C149.516 73.0001 154.587 69.4181 157.307 71.0238L158.049 71.5179C160.77 73.0001 160.151 79.1761 158.544 81.8935L143.21 108.821C142.839 109.438 141.849 109.685 141.107 109.315Z" fill="#E75724"/>
<path d="M141.355 66.8242L158.667 67.3183L135.295 108.203L125.155 105.239L141.355 66.8242Z" fill="#00C6BC"/>
<path d="M125.031 105.115L117.117 100.545C116.375 100.174 116.127 99.1862 116.498 98.4451L131.956 71.5179C133.44 68.8004 138.51 65.2184 141.231 66.8241L141.973 67.3182C144.694 68.8004 144.075 74.9764 142.468 77.6938L127.133 104.498C126.762 105.239 125.773 105.486 125.031 105.115Z" fill="#00A599"/>
<path d="M162.625 68.6769C162.625 68.6769 181.421 63.3655 184.142 62.1303C186.863 60.8951 195.766 49.2843 195.766 49.2843L198.363 50.7665C198.363 50.7665 195.519 61.6362 187.481 67.1946C184.389 69.418 166.706 76.3351 166.706 76.3351L162.625 68.6769Z" fill="#FFB27D"/>
<path d="M100.422 161.316C100.422 161.316 97.3307 164.528 96.094 167.616C94.8574 170.704 93.0025 174.162 91.8895 173.668C91.2712 173.421 89.6636 170.951 91.5185 167.369C93.3735 163.91 90.4055 160.328 93.0025 158.352C94.7337 156.993 95.723 158.97 99.3093 154.646L100.422 161.316Z" fill="#340E70"/>
<path d="M156.071 105.609C156.071 105.609 135.914 131.178 127.133 139.083C122.434 143.283 100.175 161.811 100.175 161.811C100.175 161.811 98.691 160.328 98.1964 158.97C97.3307 156.376 98.0727 154.77 98.0727 154.77C98.0727 154.77 109.079 134.883 116.498 127.472C122.558 121.42 126.639 104.25 139.994 96.3452C153.35 88.687 156.071 105.609 156.071 105.609Z" fill="#662ABC"/>
<path d="M166.335 92.8866C161.388 106.35 159.78 110.426 157.307 110.797C137.274 113.761 131.214 109.809 129.359 106.597C128.865 105.733 130.101 103.509 131.462 101.78C132.946 98.8155 137.397 95.2335 139.747 91.5279C141.231 89.0575 142.344 86.9577 143.21 85.1049C147.167 76.088 143.952 73.4941 145.807 72.3824C149.145 70.2825 164.851 65.7123 169.797 67.4416C172.27 68.3062 169.179 73.247 169.302 77.3232C169.673 82.511 168.066 87.9458 166.335 92.8866Z" fill="white"/>
<path d="M144.817 73.0001C144.817 73.0001 130.472 82.7582 127.381 87.946C124.289 93.1338 119.714 104.992 119.714 104.992C119.714 104.992 119.837 105.733 122.558 105.362C122.558 105.362 131.462 91.8986 132.946 90.5399C134.306 89.1812 146.796 82.3876 146.796 82.3876L144.817 73.0001Z" fill="#FFB27D"/>
<path d="M174.002 72.1355C173.383 73.9883 172.023 76.2117 169.426 78.435L162.625 67.5653C162.625 67.5653 169.797 66.4536 173.754 65.589C173.631 65.589 175.362 68.3064 174.002 72.1355Z" fill="white"/>
<path d="M155.823 68.8004C155.823 68.8004 149.022 69.7886 143.828 72.753C141.726 73.9882 136.161 78.8055 136.161 78.8055C136.161 78.8055 137.769 83.8698 144.075 85.352C150.382 86.8343 149.022 74.7293 149.022 74.7293L155.823 68.8004Z" fill="white"/>
<path d="M195.766 49.5313C195.766 49.5313 196.756 43.4789 198.116 43.4789C199.353 43.6024 200.342 45.5787 200.589 46.6904C200.713 47.8021 198.363 50.8901 198.363 50.8901L195.766 49.5313Z" fill="#FFB27D"/>
<path d="M122.929 105.856C122.929 105.856 123.424 108.697 122.929 109.809C122.434 110.921 121.198 111.785 120.332 111.785C119.466 111.662 120.95 109.685 120.332 108.574C119.714 107.462 118.724 104.992 120.456 104.374C122.187 103.633 122.929 105.856 122.929 105.856Z" fill="#FFB27D"/>
<path d="M122.682 104.992C122.682 104.992 123.3 106.721 123.671 107.338C124.042 107.956 122.682 107.091 122.311 106.474C121.94 105.856 122.682 104.992 122.682 104.992Z" fill="#FFAE73"/>
<path d="M144.941 87.4517C144.817 90.4162 141.726 96.3451 138.139 97.4568C134.677 98.5685 131.462 101.656 131.338 101.78C132.822 98.8155 137.274 95.2335 139.623 91.5279C141.107 89.0575 142.22 86.9577 143.086 85.1049C143.952 84.9813 145.065 85.3519 144.941 87.4517Z" fill="#EBE6FF"/>
<path d="M150.753 80.1641C148.898 85.846 143.704 88.0694 141.602 88.687C141.107 88.8105 140.86 88.934 140.736 88.934H140.613L139.994 86.3401C139.994 86.3401 140.736 86.2166 141.726 85.7225C143.704 84.8579 146.92 83.0051 148.156 79.176C149.887 73.9882 145.436 70.4061 144.941 69.912C146.054 69.665 147.043 69.4179 148.032 69.1709C150.258 71.6413 152.237 75.5939 150.753 80.1641Z" fill="#00C6BC"/>
<path d="M160.522 68.6769C160.522 68.6769 167.695 69.665 169.426 78.4349C169.426 78.4349 171.034 77.8173 171.405 76.4586C171.405 76.4586 169.426 68.6769 161.883 67.3182C161.388 67.1947 159.657 66.8241 159.657 66.8241L159.533 67.1947C159.533 67.1947 159.533 68.1828 159.657 68.3063C159.533 68.4299 160.522 68.6769 160.522 68.6769Z" fill="#00C6BC"/>
<path d="M152.484 69.4179C153.103 67.9357 153.597 65.7123 153.597 62.9949L153.968 63.1184L160.77 64.7241C160.77 64.7241 160.522 66.824 160.522 68.9238C160.275 74.9763 151.99 70.6531 152.484 69.4179Z" fill="#FFB27D"/>
<path d="M160.77 64.6006C160.77 64.6006 160.77 64.6006 160.646 66.7005C156.813 66.4534 154.834 64.9712 154.092 62.9949L160.77 64.6006Z" fill="#F48F4E"/>
<path d="M163.738 63.983C163.738 63.983 155.576 67.565 153.35 62.5007C151.248 57.4364 148.651 54.472 153.845 52.0016C159.038 49.5312 160.893 51.0134 162.006 52.4957C163.119 54.1014 165.84 62.8713 163.738 63.983Z" fill="#FFB27D"/>
<path d="M147.662 52.8662C147.538 52.7427 147.414 52.7427 146.92 52.8662C146.92 52.8662 147.167 52.6192 147.662 52.4957C147.662 51.8781 147.662 50.8899 148.527 50.3959C148.527 50.3959 148.033 50.7664 148.156 51.384C149.022 50.0253 151.124 48.5431 157.802 47.4314C166.582 45.9492 165.222 52.1251 164.232 53.1133C163.243 54.1014 160.028 52.9898 157.926 53.6074C155.823 54.3485 156.194 57.4365 155.7 58.0541C155.081 58.6717 155.205 57.807 154.092 57.6835C152.979 57.4365 153.35 59.0422 153.845 60.0304C154.339 61.0185 153.474 62.6243 153.474 62.6243C153.474 62.6243 153.474 62.6243 151.742 61.5126C150.011 60.4009 147.291 54.719 147.538 53.2368C147.538 53.2368 147.538 53.1133 147.662 52.8662Z" fill="#340E70"/>
<path d="M286.288 175.768C270.582 204.425 262.915 229.993 189.46 209.736C160.275 201.707 154.216 212.33 122.558 217.641C121.569 217.765 120.703 218.012 119.714 218.135C110.934 219.494 103.143 219.247 96.2178 217.888C87.4377 216.035 80.1416 212.33 73.9585 207.266C61.9632 197.013 54.5434 181.574 50.7099 165.393C49.2259 159.464 48.2366 153.411 47.742 147.482C47.371 144.147 47.2473 140.936 47.1237 137.971C47.1237 137.971 61.8395 140.936 64.0655 152.917C64.0655 152.917 67.4044 151.558 70.6196 154.523C73.8348 157.364 71.1142 163.169 66.5387 164.034C66.5387 164.034 78.4104 165.393 76.8027 178.362C76.8027 178.362 83.6042 175.768 86.6958 182.562C86.6958 182.562 96.7125 172.927 110.439 179.103C124.166 185.279 123.547 196.519 123.547 196.519C123.547 196.519 129.978 191.455 137.027 195.655C144.075 199.978 144.199 204.301 144.199 204.301C144.199 204.301 147.538 200.472 152.237 202.695C152.237 202.695 159.78 188.985 178.206 194.79C178.206 194.79 182.658 191.208 187.852 194.42C192.922 197.631 192.922 201.46 192.922 201.46C192.922 201.46 204.67 194.42 215.181 205.042C215.181 205.042 222.107 201.831 227.671 205.042C227.671 205.042 227.795 194.296 238.306 191.332C238.306 191.332 237.07 180.585 250.425 179.227C263.781 177.868 268.233 185.897 268.233 185.897C268.233 185.897 274.292 175.768 286.288 175.768Z" fill="#EBE6FF"/>
</g>
<defs>
<linearGradient id="paint0_linear" x1="6.64485" y1="117.972" x2="373.07" y2="117.972" gradientUnits="userSpaceOnUse">
<stop stop-color="#562B98"/>
<stop offset="1" stop-color="#BD74F4"/>
</linearGradient>
<clipPath id="clip0">
<rect width="289" height="219" fill="white" transform="translate(47)"/>
</clipPath>
</defs>
</svg>
