<svg width="384" height="220" viewBox="0 0 384 220" fill="none" xmlns="http://www.w3.org/2000/svg">
<mask id="mask0" mask-type="alpha" maskUnits="userSpaceOnUse" x="0" y="0" width="384" height="220">
<rect width="384" height="220" fill="url(#paint0_linear)"/>
</mask>
<g mask="url(#mask0)">
<rect width="384" height="220" fill="white"/>
</g>
<path d="M148.384 205.702C106.36 195.004 122.335 166.31 83.6694 155.412C-14.3554 128.017 46.2748 29.2357 126.964 30.7354C138.491 30.9354 146.478 28.8358 152.922 25.9363C160.546 22.537 166.264 18.0378 173.344 15.0384C177.156 13.7387 181.513 12.6389 186.232 11.739C198.576 9.43948 213.734 8.93957 230.616 13.2388C272.64 23.9367 256.665 52.6312 295.331 63.5292C393.355 90.9239 332.725 189.705 252.036 188.205C240.509 188.005 232.613 190.105 226.078 193.004C218.454 196.404 212.736 200.903 205.565 203.902C201.753 205.102 197.487 206.302 192.858 207.102C180.514 209.601 165.357 210.101 148.384 205.702Z" fill="#C0B1FF" fill-opacity="0.5"/>
<path d="M175.137 50.2447C180.481 35.55 194.374 26.7332 209.069 27.0004C212.542 27.0004 216.283 27.8019 219.756 29.1378C230.443 32.8783 238.191 41.4279 241.397 51.5806C243.534 58.5271 243.534 66.2752 240.863 73.7561C240.595 74.5577 240.328 75.092 240.061 75.8935C238.725 79.0996 236.855 82.0386 234.718 84.7103C225.634 95.3974 210.405 99.9393 196.244 94.863C178.076 88.4508 168.458 68.4126 175.137 50.2447ZM199.183 86.5806C209.87 90.321 221.092 86.8477 228.038 78.8325C229.641 76.9622 230.977 74.8248 232.046 72.4203C232.313 71.8859 232.58 71.3516 232.58 70.8172C234.45 65.2065 234.45 59.3287 232.847 54.2523C230.443 46.7714 224.832 40.3592 216.55 37.4203C213.878 36.3516 211.206 36.0844 208.534 35.8172C197.58 35.55 186.893 42.2294 183.153 53.1836C178.344 66.8096 185.557 81.7714 199.183 86.5806Z" fill="white"/>
<path d="M233.115 54.2519L241.397 51.5802C238.191 41.4275 230.443 32.8779 219.756 29.1374C216.282 27.8015 212.542 27 209.069 27L208.802 35.8168C211.473 35.8168 214.145 36.3511 216.817 37.4198C224.832 40.0916 230.71 46.5038 233.115 54.2519Z" fill="#662ABC"/>
<path d="M232.046 72.4201L240.061 75.8934C240.328 75.0919 240.595 74.5575 240.863 73.756C243.534 66.2751 243.534 58.527 241.397 51.5804L233.115 54.2522C234.718 59.5957 234.718 65.2064 232.847 70.8171C232.58 71.3514 232.313 71.8858 232.046 72.4201Z" fill="#9150FF"/>
<path d="M234.718 84.7099C236.855 82.0381 238.725 79.0992 240.061 75.8931L232.046 72.4198C230.977 74.8244 229.641 76.9618 228.038 78.832L234.718 84.7099Z" fill="#00C6BC"/>
<line x1="239" y1="46.5" x2="285" y2="46.5" stroke="#662ABC"/>
<line x1="239" y1="68.5" x2="285" y2="68.5" stroke="#9150FF"/>
<line x1="235" y1="82.5" x2="285" y2="82.5" stroke="#00C6BC"/>
<line x1="224" y1="98.5" x2="285" y2="98.5" stroke="white"/>
<line x1="223.5" y1="99" x2="223.5" y2="92" stroke="white"/>
<path d="M233.9 113H336.2C337.8 113 339 114.3 339 115.8V130.1C339 131.7 337.7 132.9 336.2 132.9H233.9C232.3 132.9 231.1 131.6 231.1 130.1V115.8C231 114.2 232.3 113 233.9 113Z" fill="white"/>
<path d="M241.1 125C242.205 125 243.1 124.105 243.1 123C243.1 121.895 242.205 121 241.1 121C239.995 121 239.1 121.895 239.1 123C239.1 124.105 239.995 125 241.1 125Z" fill="#00C6BC"/>
<path d="M263.1 125C264.205 125 265.1 124.105 265.1 123C265.1 121.895 264.205 121 263.1 121C261.995 121 261.1 121.895 261.1 123C261.1 124.105 261.995 125 263.1 125Z" fill="#00C6BC"/>
<path d="M285 125C286.105 125 287 124.105 287 123C287 121.895 286.105 121 285 121C283.895 121 283 121.895 283 123C283 124.105 283.895 125 285 125Z" fill="#00C6BC"/>
<path d="M307 125C308.105 125 309 124.105 309 123C309 121.895 308.105 121 307 121C305.895 121 305 121.895 305 123C305 124.105 305.895 125 307 125Z" fill="#00C6BC"/>
<path d="M328.9 125C330.005 125 330.9 124.105 330.9 123C330.9 121.895 330.005 121 328.9 121C327.795 121 326.9 121.895 326.9 123C326.9 124.105 327.795 125 328.9 125Z" fill="#00C6BC"/>
<path d="M67.2858 56H140.894C141.539 56 142.112 56.8321 142.112 57.7683V67.962C142.112 68.8982 141.539 69.7303 140.894 69.7303H67.2858C66.6408 69.7303 66.0674 68.8982 66.0674 67.962V57.7683C66.0674 56.7281 66.5691 56 67.2858 56Z" fill="white"/>
<path d="M67.2858 72.8989H140.894C141.539 72.8989 142.112 73.7311 142.112 74.6672V84.861C142.112 85.7971 141.539 86.6293 140.894 86.6293H67.2858C66.6408 86.6293 66.0674 85.7971 66.0674 84.861V74.7712C66.0674 73.7311 66.5691 72.8989 67.2858 72.8989Z" fill="white"/>
<path d="M67.2858 88.7416H140.894C141.539 88.7416 142.112 89.5737 142.112 90.5099V100.704C142.112 101.64 141.539 102.472 140.894 102.472H67.2858C66.6408 102.472 66.0674 101.64 66.0674 100.704V90.5099C66.0674 89.5737 66.5691 88.7416 67.2858 88.7416Z" fill="white"/>
<path d="M48.1124 56H61.3146C62.4764 56 63.427 56.9506 63.427 58.1124V67.8292C63.427 68.991 62.4764 69.9416 61.3146 69.9416H48.1124C46.9506 69.9416 46 68.991 46 67.8292V58.1124C46 56.9506 46.9506 56 48.1124 56Z" fill="white"/>
<path d="M47.7955 72.476H61.6315C62.582 72.476 63.427 73.3209 63.427 74.2715V84.622C63.427 85.5726 62.582 86.4175 61.6315 86.4175H47.7955C46.8449 86.4175 46 85.5726 46 84.622V74.3771C46 73.3209 46.8449 72.476 47.7955 72.476Z" fill="white"/>
<path d="M47.5843 89.0582H61.1034C62.3708 89.0582 63.427 90.1144 63.427 91.3818V101.416C63.427 102.366 62.6876 103 61.8427 103H47.5843C46.6337 103 46 102.26 46 101.416V90.6425C46 89.7976 46.7393 89.0582 47.5843 89.0582Z" fill="white"/>
<path d="M130.917 61.5975H70.8202V64.8717H130.917V61.5975Z" fill="#DCD4FF"/>
<path d="M130.917 78.1798H70.8202V81.454H130.917V78.1798Z" fill="#DCD4FF"/>
<path d="M130.917 94.6558H70.8202V97.9299H130.917V94.6558Z" fill="#DCD4FF"/>
<path d="M54.4494 65.4C55.7327 65.4 56.773 64.3597 56.773 63.0764C56.773 61.7931 55.7327 60.7528 54.4494 60.7528C53.1662 60.7528 52.1259 61.7931 52.1259 63.0764C52.1259 64.3597 53.1662 65.4 54.4494 65.4Z" fill="#00C6BC"/>
<path d="M54.4494 81.9823C55.7327 81.9823 56.773 80.942 56.773 79.6587C56.773 78.3754 55.7327 77.3351 54.4494 77.3351C53.1662 77.3351 52.1259 78.3754 52.1259 79.6587C52.1259 80.942 53.1662 81.9823 54.4494 81.9823Z" fill="#00C6BC"/>
<path d="M54.4494 98.5644C55.7327 98.5644 56.773 97.5241 56.773 96.2408C56.773 94.9575 55.7327 93.9172 54.4494 93.9172C53.1662 93.9172 52.1259 94.9575 52.1259 96.2408C52.1259 97.5241 53.1662 98.5644 54.4494 98.5644Z" fill="#00C6BC"/>
<path d="M208.5 189.8H64.7C62.7 189.8 61 188.1 61 186.1V116.7C61 114.7 62.7 113 64.7 113H208.5C210.5 113 212.2 114.7 212.2 116.7V186.1C212.2 188.1 210.6 189.8 208.5 189.8Z" fill="white"/>
<path d="M69.7489 130.804C69.7489 130.202 69.8469 129.8 69.9938 129.8H81.4551C81.602 129.8 81.7 130.302 81.7 130.804V176.8H69.7V130.804H69.7489Z" fill="#9150FF"/>
<path d="M82.7489 138.634C82.7489 138.134 82.8469 137.8 82.9938 137.8H94.4551C94.602 137.8 94.7 138.217 94.7 138.634V176.8H82.7V138.634H82.7489Z" fill="#00C6BC"/>
<path d="M96.7489 150.687C96.7489 150.194 96.8469 149.8 96.9938 149.8H108.455C108.602 149.8 108.7 150.194 108.7 150.687V176.8H96.7V150.687H96.7489Z" fill="#9150FF"/>
<path d="M109.749 154.556C109.749 154.136 109.847 153.8 109.994 153.8H121.455C121.602 153.8 121.7 154.136 121.7 154.556V176.8H109.7V154.556H109.749Z" fill="#00C6BC"/>
<path d="M123.749 139.785C123.749 139.292 123.847 138.8 123.994 138.8H135.455C135.602 138.8 135.7 139.194 135.7 139.785V176.8H123.7V139.785H123.749Z" fill="#9150FF"/>
<path d="M136.749 145.629C136.749 145.215 136.847 144.8 136.994 144.8H148.455C148.602 144.8 148.7 145.132 148.7 145.629V176.8H136.7V145.629H136.749Z" fill="#00C6BC"/>
<path d="M150.749 156.781C150.749 156.291 150.847 155.8 150.994 155.8H162.455C162.602 155.8 162.7 156.193 162.7 156.781V176.8H150.7V156.781H150.749Z" fill="#9150FF"/>
<path d="M163.749 160.595C163.749 160.197 163.847 159.8 163.994 159.8H175.455C175.602 159.8 175.7 160.118 175.7 160.595V176.8H163.7V160.595H163.749Z" fill="#00C6BC"/>
<path d="M177.749 148.685C177.749 148.193 177.847 147.8 177.994 147.8H189.455C189.602 147.8 189.7 148.193 189.7 148.685V176.8H177.7V148.685H177.749Z" fill="#9150FF"/>
<path d="M190.749 156.441C190.749 156.085 190.847 155.8 190.994 155.8H202.455C202.602 155.8 202.7 156.085 202.7 156.441V176.8H190.7V156.441H190.749Z" fill="#00C6BC"/>
<path d="M94.4 179H69.9V181H94.4V179Z" fill="#DCD4FF"/>
<path d="M121.6 179H97.1001V181H121.6V179Z" fill="#DCD4FF"/>
<path d="M147.7 179H123.2V181H147.7V179Z" fill="#DCD4FF"/>
<path d="M174.9 179H150.4V181H174.9V179Z" fill="#DCD4FF"/>
<path d="M202.7 178.8H177.7V180.8H202.7V178.8Z" fill="#DCD4FF"/>
<path d="M76.4 120.6H69.9V122.4H76.4V120.6Z" fill="#DCD4FF"/>
<path d="M79.1 123.9H69.9V125.7H79.1V123.9Z" fill="#DCD4FF"/>
<path d="M104.4 120.6H96.8V122.4H104.4V120.6Z" fill="#DCD4FF"/>
<path d="M101.7 123.9H96.8V125.7H101.7V123.9Z" fill="#DCD4FF"/>
<path d="M129.2 120.6H124.5V122.4H129.2V120.6Z" fill="#DCD4FF"/>
<path d="M130 123.9H124.5V125.7H130V123.9Z" fill="#DCD4FF"/>
<path d="M158.5 120.6H151.6V122.4H158.5V120.6Z" fill="#DCD4FF"/>
<path d="M157.1 123.9H151.6V125.7H157.1V123.9Z" fill="#DCD4FF"/>
<path d="M185.4 120.6H178.5V122.4H185.4V120.6Z" fill="#DCD4FF"/>
<path d="M184 123.9H178.5V125.7H184V123.9Z" fill="#DCD4FF"/>
<path d="M322.7 176.3C313.3 176.3 305.7 168.7 305.7 159.3C305.7 149.9 313.3 142.3 322.7 142.3C332.1 142.3 339.7 149.9 339.7 159.3C339.7 168.7 332.1 176.3 322.7 176.3ZM322.7 145.7C315.2 145.7 309.1 151.8 309.1 159.3C309.1 166.8 315.2 172.9 322.7 172.9C330.2 172.9 336.3 166.8 336.3 159.3C336.3 151.8 330.2 145.7 322.7 145.7Z" fill="#662ABC"/>
<path d="M294.7 146.7H248.3V150.8H294.7V146.7Z" fill="white"/>
<path d="M294.7 157.3H255.1V161.4H294.7V157.3Z" fill="white"/>
<path d="M294.7 167.8H231V171.9H294.7V167.8Z" fill="white"/>
<path d="M260.134 92.624H285V95.999H260.134V92.624Z" fill="white"/>
<path d="M260 63H284.866V66.375H260V63Z" fill="#9150FF"/>
<path d="M260 77H284.866V80.375H260V77Z" fill="#00C6BC"/>
<path d="M260 41H284.866V44.375H260V41Z" fill="#662ABC"/>
<defs>
<linearGradient id="paint0_linear" x1="6.64485" y1="117.972" x2="373.07" y2="117.972" gradientUnits="userSpaceOnUse">
<stop stop-color="#562B98"/>
<stop offset="1" stop-color="#BD74F4"/>
</linearGradient>
</defs>
</svg>
